<svg xmlns="http://www.w3.org/2000/svg" width="740" height="300" viewBox="0 0 740 300"><rect width="740" height="300" fill="#0d1117"/><rect x="20" y="50" width="150" height="220" fill="#161b22" stroke="#4488ff" stroke-width="2" rx="8"/><text x="95.0" y="74" fill="#4488ff" font-family="monospace" font-size="14" text-anchor="middle" font-weight="bold">Targets</text><rect x="32" y="100" width="126" height="26" fill="#21262d" rx="4"/><text x="95.0" y="118" fill="#c9d1d9" font-family="monospace" font-size="11" text-anchor="middle">www.ou.edu</text><rect x="32" y="134" width="126" height="26" fill="#21262d" rx="4"/><text x="95.0" y="152" fill="#c9d1d9" font-family="monospace" font-size="11" text-anchor="middle">exchange.ou.edu</text><rect x="32" y="168" width="126" height="26" fill="#21262d" rx="4"/><text x="95.0" y="186" fill="#c9d1d9" font-family="monospace" font-size="11" text-anchor="middle">remote.ou.edu</text><rect x="32" y="202" width="126" height="26" fill="#21262d" rx="4"/><text x="95.0" y="220" fill="#c9d1d9" font-family="monospace" font-size="11" text-anchor="middle">libraries.ou.edu</text><path d="M 170 160 L 190 160" stroke="#4488ff" stroke-width="2" marker-end="url(#ar)"/><rect x="190" y="50" width="150" height="220" fill="#161b22" stroke="#ffaa00" stroke-width="2" rx="8"/><text x="265.0" y="74" fill="#ffaa00" font-family="monospace" font-size="14" text-anchor="middle" font-weight="bold">Recon / Leak</text><rect x="202" y="100" width="126" height="26" fill="#21262d" rx="4"/><text x="265.0" y="118" fill="#c9d1d9" font-family="monospace" font-size="11" text-anchor="middle">Hostname Disclosure</text><rect x="202" y="134" width="126" height="26" fill="#21262d" rx="4"/><text x="265.0" y="152" fill="#c9d1d9" font-family="monospace" font-size="11" text-anchor="middle">SAML Leak</text><rect x="202" y="168" width="126" height="26" fill="#21262d" rx="4"/><text x="265.0" y="186" fill="#c9d1d9" font-family="monospace" font-size="11" text-anchor="middle">Cache-Tags Leak</text><path d="M 340 160 L 360 160" stroke="#ffaa00" stroke-width="2" marker-end="url(#ar)"/><rect x="360" y="50" width="150" height="220" fill="#161b22" stroke="#ff4444" stroke-width="2" rx="8"/><text x="435.0" y="74" fill="#ff4444" font-family="monospace" font-size="14" text-anchor="middle" font-weight="bold">Exploit</text><rect x="372" y="100" width="126" height="26" fill="#21262d" rx="4"/><text x="435.0" y="118" fill="#c9d1d9" font-family="monospace" font-size="11" text-anchor="middle">XST TRACE</text><rect x="372" y="134" width="126" height="26" fill="#21262d" rx="4"/><text x="435.0" y="152" fill="#c9d1d9" font-family="monospace" font-size="11" text-anchor="middle">Email Spoofing</text><path d="M 510 160 L 530 160" stroke="#ff4444" stroke-width="2" marker-end="url(#ar)"/><rect x="530" y="50" width="150" height="220" fill="#161b22" stroke="#aa00ff" stroke-width="2" rx="8"/><text x="605.0" y="74" fill="#aa00ff" font-family="monospace" font-size="14" text-anchor="middle" font-weight="bold">Impact</text><rect x="542" y="100" width="126" height="26" fill="#21262d" rx="4"/><text x="605.0" y="118" fill="#c9d1d9" font-family="monospace" font-size="11" text-anchor="middle">Account Takeover</text><rect x="542" y="134" width="126" height="26" fill="#21262d" rx="4"/><text x="605.0" y="152" fill="#c9d1d9" font-family="monospace" font-size="11" text-anchor="middle">AD Compromise</text><defs><marker id="ar" markerWidth="10" markerHeight="10" refX="8" refY="3" orient="auto"><path d="M0,0 L8,3 L0,6 Z" fill="#8b949e"/></marker></defs></svg>