<svg xmlns="http://www.w3.org/2000/svg" width="520" height="360" viewBox="0 0 520 360"><rect width="520" height="360" fill="#0d1117"/><line x1="60" y1="40" x2="300" y2="40" stroke="#30363d" stroke-width="1.5"/><line x1="60" y1="100" x2="300" y2="150" stroke="#30363d" stroke-width="1.5"/><line x1="60" y1="160" x2="300" y2="205" stroke="#30363d" stroke-width="1.5"/><line x1="60" y1="220" x2="300" y2="260" stroke="#30363d" stroke-width="1.5"/><line x1="60" y1="220" x2="300" y2="315" stroke="#30363d" stroke-width="1.5"/><line x1="60" y1="40" x2="300" y2="95" stroke="#30363d" stroke-width="1.5"/><circle cx="60" cy="40" r="6" fill="#4488ff"/><text x="72" y="44" fill="#c9d1d9" font-family="monospace" font-size="11">www.ou.edu</text><circle cx="60" cy="100" r="6" fill="#4488ff"/><text x="72" y="104" fill="#c9d1d9" font-family="monospace" font-size="11">exchange.ou.edu</text><circle cx="60" cy="160" r="6" fill="#4488ff"/><text x="72" y="164" fill="#c9d1d9" font-family="monospace" font-size="11">remote.ou.edu</text><circle cx="60" cy="220" r="6" fill="#4488ff"/><text x="72" y="224" fill="#c9d1d9" font-family="monospace" font-size="11">libraries.ou.edu</text><circle cx="300" cy="40" r="6" fill="#ff4444"/><text x="312" y="44" fill="#c9d1d9" font-family="monospace" font-size="11">XST (TRACE Method)</text><circle cx="300" cy="95" r="6" fill="#ff4444"/><text x="312" y="99" fill="#c9d1d9" font-family="monospace" font-size="11">Email Spoofing</text><circle cx="300" cy="150" r="6" fill="#ffaa00"/><text x="312" y="154" fill="#c9d1d9" font-family="monospace" font-size="11">Exchange Hostname Disclosure</text><circle cx="300" cy="205" r="6" fill="#ffaa00"/><text x="312" y="209" fill="#c9d1d9" font-family="monospace" font-size="11">BeyondTrust SAML Leak</text><circle cx="300" cy="260" r="6" fill="#44ff44"/><text x="312" y="264" fill="#c9d1d9" font-family="monospace" font-size="11">Drupal Cache-Tags Leak</text><circle cx="300" cy="315" r="6" fill="#4488ff"/><text x="312" y="319" fill="#c9d1d9" font-family="monospace" font-size="11">Git Repository Existence</text></svg>