<svg xmlns="http://www.w3.org/2000/svg" width="520" height="320" viewBox="0 0 520 320"><rect width="520" height="320" fill="#0d1117"/><text x="160" y="24" fill="#c9d1d9" font-family="monospace" font-size="16" text-anchor="middle">Findings by Severity</text><g transform="translate(0,0)"><path d="M 160.0 50.0 A 110 110 0 0 1 255.3 215.0 L 225.8 198.0 A 76 76 0 0 0 160.0 84.0 Z" fill="#ff4444" stroke="#0d1117" stroke-width="2"/><path d="M 255.3 215.0 A 110 110 0 0 1 64.7 215.0 L 94.2 198.0 A 76 76 0 0 0 225.8 198.0 Z" fill="#ffaa00" stroke="#0d1117" stroke-width="2"/><path d="M 64.7 215.0 A 110 110 0 0 1 64.7 105.0 L 94.2 122.0 A 76 76 0 0 0 94.2 198.0 Z" fill="#44ff44" stroke="#0d1117" stroke-width="2"/><path d="M 64.7 105.0 A 110 110 0 0 1 160.0 50.0 L 160.0 84.0 A 76 76 0 0 0 94.2 122.0 Z" fill="#4488ff" stroke="#0d1117" stroke-width="2"/></g><text x="160" y="166" fill="#fff" font-family="monospace" font-size="22" text-anchor="middle">6</text><rect x="320" y="30" width="16" height="16" fill="#ff4444" rx="3"/><text x="344" y="43" fill="#c9d1d9" font-family="monospace" font-size="14">HIGH: 2</text><rect x="320" y="56" width="16" height="16" fill="#ffaa00" rx="3"/><text x="344" y="69" fill="#c9d1d9" font-family="monospace" font-size="14">MEDIUM: 2</text><rect x="320" y="82" width="16" height="16" fill="#44ff44" rx="3"/><text x="344" y="95" fill="#c9d1d9" font-family="monospace" font-size="14">LOW: 1</text><rect x="320" y="108" width="16" height="16" fill="#4488ff" rx="3"/><text x="344" y="121" fill="#c9d1d9" font-family="monospace" font-size="14">INFO: 1</text></svg>